<svg width="26" height="17" viewBox="0 0 26 17" fill="none" xmlns="http://www.w3.org/2000/svg">
<path d="M1.4582 9.20913C0.65288 8.36797 0.728496 7.08564 1.62709 6.34496C2.52569 5.60428 3.90699 5.68573 4.7123 6.52689L10.2121 12.2714C11.0174 13.1126 10.9418 14.3949 10.0432 15.1356C9.14461 15.8763 7.76331 15.7948 6.95799 14.9537L1.4582 9.20913Z" fill="#002E54"/>
<path d="M21.4909 1.33377C22.3799 0.597176 23.7496 0.674406 24.5502 1.50627C25.3508 2.33814 25.2791 3.60963 24.3901 4.34623L10.7277 15.6663C9.83869 16.4029 8.46901 16.3257 7.66843 15.4938C6.86786 14.662 6.93955 13.3905 7.82856 12.6539L21.4909 1.33377Z" fill="#052B51"/>
</svg>
